HIERARCHY
ROOT Hips
{
	OFFSET 0.000000 0.000000 0.000000
	CHANNELS 6 Xposition Yposition Zposition Xrotation Yrotation Zrotation
	JOINT LeftUpLeg_virtual
	{
		OFFSET 0.000000 0.000000 0.000000
		CHANNELS 3 Xrotation Yrotation Zrotation
		JOINT LeftUpLeg
		{
			OFFSET 10.205400 -3.823500 0.155100
			CHANNELS 3 Xrotation Yrotation Zrotation
			JOINT LeftLeg
			{
				OFFSET 0.708757 -12.982077 0.567790
				CHANNELS 3 Xrotation Yrotation Zrotation
				JOINT LeftFoot
				{
					OFFSET -0.708756 -10.717838 -2.184338
					CHANNELS 3 Xrotation Yrotation Zrotation
					JOINT LeftToeBase
					{
						OFFSET 0.108149 -7.191104 7.560241
						CHANNELS 3 Xrotation Yrotation Zrotation
						JOINT LeftToe_End
						{
							OFFSET 0.070230 0.081724 4.490308
							CHANNELS 3 Xrotation Yrotation Zrotation
							End Site
							{
								OFFSET 0 0 0
							}
						}
					}
				}
			}
		}
	}
	JOINT RightUpLeg_virtual
	{
		OFFSET 0.000000 0.000000 0.000000
		CHANNELS 3 Xrotation Yrotation Zrotation
		JOINT RightUpLeg
		{
			OFFSET -10.205400 -3.823500 0.005500
			CHANNELS 3 Xrotation Yrotation Zrotation
			JOINT RightLeg
			{
				OFFSET -0.708756 -12.982134 0.610632
				CHANNELS 3 Xrotation Yrotation Zrotation
				JOINT RightFoot
				{
					OFFSET 0.708754 -10.717769 -1.945823
					CHANNELS 3 Xrotation Yrotation Zrotation
					JOINT RightToeBase
					{
						OFFSET -0.108140 -7.191069 7.372968
						CHANNELS 3 Xrotation Yrotation Zrotation
						JOINT RightToe_End
						{
							OFFSET -0.070227 0.081735 4.479403
							CHANNELS 3 Xrotation Yrotation Zrotation
							End Site
							{
								OFFSET 0 0 0
							}
						}
					}
				}
			}
		}
	}
	JOINT Spine_virtual
	{
		OFFSET 0.000000 0.000000 0.000000
		CHANNELS 3 Xrotation Yrotation Zrotation
		JOINT Spine
		{
			OFFSET 0.000000 6.876099 0.125700
			CHANNELS 3 Xrotation Yrotation Zrotation
			JOINT Spine1
			{
				OFFSET 0.000000 5.730043 0.104720
				CHANNELS 3 Xrotation Yrotation Zrotation
				JOINT Spine1_split
				{
					OFFSET 0.000000 5.730043 0.104720
					CHANNELS 3 Xrotation Yrotation Zrotation
					JOINT Spine2
					{
						OFFSET 0.000000 5.730043 0.104720
						CHANNELS 3 Xrotation Yrotation Zrotation
						JOINT Neck_virtual
						{
							OFFSET 0.000000 0.000000 0.000000
							CHANNELS 3 Xrotation Yrotation Zrotation
							JOINT Neck
							{
								OFFSET 0.000000 10.314075 0.188496
								CHANNELS 3 Xrotation Yrotation Zrotation
								JOINT Head
								{
									OFFSET 0.000000 7.643700 -2.377400
									CHANNELS 3 Xrotation Yrotation Zrotation
									JOINT HeadTop_End
									{
										OFFSET 0.000000 43.788605 -13.619600
										CHANNELS 3 Xrotation Yrotation Zrotation
										End Site
										{
											OFFSET 0 0 0
										}
									}
								}
							}
						}
						JOINT LeftShoulder_virtual
						{
							OFFSET 0.000000 0.000000 0.000000
							CHANNELS 3 Xrotation Yrotation Zrotation
							JOINT LeftShoulder
							{
								OFFSET 2.196100 4.412489 0.087492
								CHANNELS 3 Xrotation Yrotation Zrotation
								JOINT LeftShoulder_split
								{
									OFFSET 2.196100 4.412489 0.087492
									CHANNELS 3 Xrotation Yrotation Zrotation
									JOINT LeftArm
									{
										OFFSET 8.771219 -2.981674 -0.026999
										CHANNELS 3 Xrotation Yrotation Zrotation
										JOINT LeftForeArm
										{
											OFFSET 8.512804 0.000000 -0.000000
											CHANNELS 3 Xrotation Yrotation Zrotation
											JOINT LeftHand
											{
												OFFSET 18.484802 0.000000 -0.000000
												CHANNELS 3 Xrotation Yrotation Zrotation
												End Site
												{
													OFFSET 0 0 0
												}
											}
										}
									}
								}
							}
						}
						JOINT RightShoulder_virtual
						{
							OFFSET 0.000000 0.000000 0.000000
							CHANNELS 3 Xrotation Yrotation Zrotation
							JOINT RightShoulder
							{
								OFFSET -2.196100 4.412496 0.070690
								CHANNELS 3 Xrotation Yrotation Zrotation
								JOINT RightShoulder_split
								{
									OFFSET -2.196100 4.412496 0.070690
									CHANNELS 3 Xrotation Yrotation Zrotation
									JOINT RightArm
									{
										OFFSET -8.771282 -2.981682 -0.094208
										CHANNELS 3 Xrotation Yrotation Zrotation
										JOINT RightForeArm
										{
											OFFSET -8.494598 0.000000 0.000000
											CHANNELS 3 Xrotation Yrotation Zrotation
											JOINT RightHand
											{
												OFFSET -18.483803 0.000000 0.000001
												CHANNELS 3 Xrotation Yrotation Zrotation
												End Site
												{
													OFFSET 0 0 0
												}
											}
										}
									}
								}
							}
						}
					}
				}
			}
		}
	}
}
MOTION
Frames: 8
Frame Time: 0.03333333
-0.993938 31.019634 -0.740412 0.000000 0.000000 0.000000 1.758697 -44.633999 4.631073 -32.637997 2.809522 19.035029 22.366607 -10.265493 3.388933 7.145193 -1.945211 -24.396978 -0.682247 1.033305 1.622958 0.000000 0.000000 0.000000 1.758697 -44.633999 4.631073 -5.774283 -5.768978 -24.939447 37.145113 -5.951320 -7.407581 -24.123670 -14.056166 31.835105 -3.009241 -0.947788 -1.024307 0.000000 0.000000 0.000000 1.758697 -44.633999 4.631073 6.688096 0.589642 -0.662849 -0.557035 1.560413 -1.610233 0.000000 0.000000 0.000000 0.000000 0.000000 0.000000 -0.534577 1.560476 -1.609753 -19.005365 -1.508394 20.421624 -4.556857 11.720421 -16.000782 0.000000 0.000000 0.000000 -0.534577 1.560476 -1.609753 -8.631163 -5.317978 -15.297445 0.000000 0.000000 0.000000 0.075335 -2.626970 -31.066839 42.317520 -37.063345 15.466014 0.000000 0.000000 0.000000 -0.534577 1.560476 -1.609753 -0.620546 15.164835 -23.726522 0.000000 0.000000 0.000000 -69.097062 11.570646 13.062496 -66.678417 31.186241 49.367494 0.000000 0.000000 0.000000 
-0.671065 30.919094 -0.775875 0.000000 0.000000 0.000000 1.943319 -46.542135 5.067586 -32.564539 3.106017 19.763239 23.883486 -9.130200 2.301226 5.683684 -1.597372 -23.891448 -0.321653 1.048725 0.978174 0.000000 0.000000 0.000000 1.943319 -46.542135 5.067586 -9.101826 -4.347813 -25.766358 39.644477 -4.363048 -8.611765 -23.912444 -13.857339 32.270356 -2.157463 -0.960754 -1.044672 0.000000 0.000000 0.000000 1.943319 -46.542135 5.067586 6.981516 0.627659 -0.519540 0.030504 1.602059 -1.410630 0.000000 0.000000 0.000000 0.000000 0.000000 0.000000 0.052969 1.602115 -1.410149 -19.678870 2.847928 20.261702 -2.884404 15.081102 -14.720878 0.000000 0.000000 0.000000 0.052969 1.602115 -1.410149 -8.451884 -5.621930 -14.376225 0.000000 0.000000 0.000000 -0.075746 -1.533863 -32.297939 42.235390 -38.238578 16.524096 0.000000 0.000000 0.000000 0.052969 1.602115 -1.410149 -1.837991 15.913864 -17.234376 0.000000 0.000000 0.000000 -61.208617 13.459275 13.486397 -68.704463 40.806525 53.529876 0.000000 0.000000 0.000000 
-0.363960 30.793068 -0.805641 0.000000 0.000000 0.000000 2.179818 -48.396388 5.549163 -32.858244 3.292562 20.381855 25.965437 -8.114336 1.437400 4.308409 -1.332202 -23.367996 -0.276118 1.054363 0.922561 0.000000 0.000000 0.000000 2.179818 -48.396388 5.549163 -12.426036 -2.941803 -26.832227 42.151884 -2.512697 -9.012466 -23.836836 -13.420640 32.174074 -1.907455 -0.964677 -1.079060 0.000000 0.000000 0.000000 2.179818 -48.396388 5.549163 7.347762 0.668774 -0.417666 0.763979 1.639950 -1.283003 0.000000 0.000000 0.000000 0.000000 0.000000 0.000000 0.786439 1.639998 -1.282524 -20.503115 6.813965 19.831232 -2.096542 18.094448 -13.398020 0.000000 0.000000 0.000000 0.786439 1.639998 -1.282524 -8.246974 -6.260983 -13.419063 0.000000 0.000000 0.000000 -0.679682 -0.986877 -33.318701 40.457400 -38.710056 16.172961 0.000000 0.000000 0.000000 0.786439 1.639998 -1.282524 -3.097936 16.714830 -10.628272 0.000000 0.000000 0.000000 -52.210444 15.138915 12.803062 -72.258456 47.887614 57.121272 0.000000 0.000000 0.000000 
-0.078680 30.656998 -0.852840 0.000000 0.000000 0.000000 2.472805 -50.127503 6.062378 -33.213636 3.496982 20.866368 28.059150 -7.244468 0.797283 2.797447 -0.995298 -22.729970 -0.268253 1.060727 0.939492 0.000000 0.000000 0.000000 2.472805 -50.127503 6.062378 -15.745382 -1.715084 -28.033956 44.560950 -0.502012 -8.778507 -23.822371 -12.712824 31.642077 -1.079620 -0.976973 -0.617609 0.000000 0.000000 0.000000 2.472805 -50.127503 6.062378 7.737657 0.730890 -0.358342 1.545304 1.715456 -1.217394 0.000000 0.000000 0.000000 0.000000 0.000000 0.000000 1.567761 1.715542 -1.216916 -21.276058 10.292437 19.285473 -1.774605 20.723378 -12.432689 0.000000 0.000000 0.000000 1.567761 1.715542 -1.216916 -8.046786 -7.136069 -12.600194 0.000000 0.000000 0.000000 -1.873252 -1.037998 -33.862599 37.901396 -38.184562 14.869516 0.000000 0.000000 0.000000 1.567761 1.715542 -1.216916 -4.357173 17.398599 -4.255223 0.000000 0.000000 0.000000 -42.601816 16.559333 11.297004 -74.448782 51.725900 57.873156 0.000000 0.000000 0.000000 
0.165622 30.482815 -0.903933 0.000000 0.000000 0.000000 2.859444 -51.576104 6.602759 -33.922483 3.625303 21.324802 30.473982 -6.637078 0.265542 1.094677 -0.658505 -22.003793 -0.259920 1.068023 0.957494 0.000000 0.000000 0.000000 2.859444 -51.576104 6.602759 -18.829348 -0.601795 -28.954760 46.938826 1.188465 -8.670041 -23.920789 -12.102687 31.282799 -0.372721 -0.987591 -0.354830 0.000000 0.000000 0.000000 2.859444 -51.576104 6.602759 8.076415 0.748221 -0.331365 2.223405 1.704147 -1.199200 0.000000 0.000000 0.000000 0.000000 0.000000 0.000000 2.245871 1.704224 -1.198725 -21.905455 13.314341 18.866741 -0.881477 22.920935 -11.838635 0.000000 0.000000 0.000000 2.245871 1.704224 -1.198725 -7.843775 -7.966335 -11.756764 0.000000 0.000000 0.000000 -3.612941 -1.560449 -34.142340 35.196392 -36.782734 13.022780 0.000000 0.000000 0.000000 2.245871 1.704224 -1.198725 -5.656792 18.013326 2.007423 0.000000 0.000000 0.000000 -33.568368 17.849460 9.607816 -72.924741 55.314495 53.804200 0.000000 0.000000 0.000000 
0.366242 30.269150 -0.944006 0.000000 0.000000 0.000000 3.200486 -52.697648 6.993929 -34.923153 3.516558 21.923388 33.088110 -6.365152 -0.261879 -0.426932 -0.369674 -21.573897 -0.251257 1.075726 0.976486 0.000000 0.000000 0.000000 3.200486 -52.697648 6.993929 -21.430325 0.369552 -29.634046 49.185422 2.493702 -8.523801 -24.149023 -11.609522 30.973914 -0.214594 -0.989690 -0.617640 0.000000 0.000000 0.000000 3.200486 -52.697648 6.993929 8.354159 0.720798 -0.323235 2.778443 1.612279 -1.199971 0.000000 0.000000 0.000000 0.000000 0.000000 0.000000 2.800890 1.612376 -1.199493 -22.204235 15.732866 18.566300 0.383176 24.599814 -11.714790 0.000000 0.000000 0.000000 2.800890 1.612376 -1.199493 -7.645254 -8.632773 -10.901451 0.000000 0.000000 0.000000 -5.617778 -2.200378 -34.209248 32.381490 -35.183763 10.853039 0.000000 0.000000 0.000000 2.800890 1.612376 -1.199493 -6.985787 18.396611 8.015026 0.000000 0.000000 0.000000 -25.184499 18.568895 8.157964 -65.263810 61.460405 42.717608 0.000000 0.000000 0.000000 
0.525693 30.060177 -0.967411 0.000000 0.000000 0.000000 3.586346 -53.684413 7.440825 -35.808561 3.405752 22.506534 35.411577 -6.185721 -0.830332 -1.795704 -0.123744 -21.182428 -0.241975 1.083918 0.996271 0.000000 0.000000 0.000000 3.586346 -53.684413 7.440825 -23.777318 1.226131 -30.287094 51.194409 3.667069 -8.349436 -24.375830 -11.116245 30.677498 -0.080776 -0.991714 -0.828321 0.000000 0.000000 0.000000 3.586346 -53.684413 7.440825 8.592305 0.724951 -0.345129 3.255241 1.585394 -1.255232 0.000000 0.000000 0.000000 0.000000 0.000000 0.000000 3.277704 1.585504 -1.254763 -22.126509 17.658679 17.953168 1.084193 25.737862 -11.663860 0.000000 0.000000 0.000000 3.277704 1.585504 -1.254763 -7.503309 -9.227971 -10.396416 0.000000 0.000000 0.000000 -7.610434 -2.682965 -33.789711 29.430971 -33.992725 8.635026 0.000000 0.000000 0.000000 3.277704 1.585504 -1.254763 -8.052884 18.038369 12.691976 0.000000 0.000000 0.000000 -18.399374 18.795386 6.802694 -54.584174 62.948512 29.891804 0.000000 0.000000 0.000000 
0.624696 29.864521 -0.969244 0.000000 0.000000 0.000000 4.009753 -54.398068 8.020032 -36.531704 3.362766 22.939322 37.224036 -6.129015 -1.455153 -2.886450 0.045373 -20.788406 -0.232454 1.092235 1.016896 0.000000 0.000000 0.000000 4.009753 -54.398068 8.020032 -25.724591 1.933841 -30.961063 53.045653 4.573633 -8.294087 -24.764948 -10.738680 30.530823 0.045104 -0.993472 -1.020969 0.000000 0.000000 0.000000 4.009753 -54.398068 8.020032 8.823406 0.723373 -0.404180 3.718434 1.549879 -1.393077 0.000000 0.000000 0.000000 0.000000 0.000000 0.000000 3.740898 1.549926 -1.392578 -22.058538 19.268102 17.083763 1.369251 26.511039 -11.441030 0.000000 0.000000 0.000000 3.740898 1.549926 -1.392578 -7.386786 -9.832720 -10.042060 0.000000 0.000000 0.000000 -9.608498 -2.869045 -33.294744 26.547928 -33.193329 6.703369 0.000000 0.000000 0.000000 3.740898 1.549926 -1.392578 -8.639336 17.153445 15.531085 0.000000 0.000000 0.000000 -13.521067 18.441248 6.910326 -40.230354 63.989406 14.132694 0.000000 0.000000 0.000000 
